<svg xmlns="http://www.w3.org/2000/svg" xmlns:xlink="http://www.w3.org/1999/xlink" width="1080" zoomAndPan="magnify" viewBox="0 0 810 809.999993" height="1080" preserveAspectRatio="xMidYMid meet" version="1.0"><defs><clipPath id="ba5ec1f81c"><path d="M 177.515625 177.515625 L 630 177.515625 L 630 630 L 177.515625 630 Z M 177.515625 177.515625 " clip-rule="nonzero"/></clipPath></defs><rect x="-81" width="972" fill="#ffffff" y="-80.999999" height="971.999992" fill-opacity="1"/><rect x="-81" width="972" fill="#000000" y="-80.999999" height="971.999992" fill-opacity="1"/><g clip-path="url(#ba5ec1f81c)"><path fill="#ffffff" d="M 469.941406 510.203125 L 581.375 621.597656 C 592.40625 632.625 610.324219 632.625 621.355469 621.589844 C 632.386719 610.554688 632.382812 592.636719 621.351562 581.605469 L 509.992188 470.289062 C 532.394531 439.816406 545.636719 402.191406 545.636719 361.492188 C 545.636719 259.953125 463.199219 177.515625 361.660156 177.515625 C 260.121094 177.515625 177.6875 259.953125 177.6875 361.492188 C 177.6875 463.03125 260.121094 545.464844 361.660156 545.464844 C 402.125 545.464844 439.554688 532.375 469.941406 510.203125 Z M 361.660156 234.0625 C 431.992188 234.0625 489.09375 291.160156 489.09375 361.492188 C 489.09375 431.820312 431.992188 488.921875 361.660156 488.921875 C 291.332031 488.921875 234.234375 431.820312 234.234375 361.492188 C 234.234375 291.160156 291.332031 234.0625 361.660156 234.0625 Z M 361.660156 234.0625 " fill-opacity="1" fill-rule="evenodd"/></g></svg>