<?xml version="1.0" encoding="UTF-8"?>
<svg version="1.1" xmlns="http://www.w3.org/2000/svg" width="1080" height="1080">
<path d="M0 0 C1.31211456 -0.00563965 2.62422913 -0.0112793 3.97610474 -0.01708984 C5.41302546 -0.013202 6.84994564 -0.00910571 8.28686523 -0.00482178 C9.81346808 -0.00753445 11.34006962 -0.01109693 12.8666687 -0.01544189 C16.99885665 -0.0245353 21.13094437 -0.02103425 25.263134 -0.01468372 C29.59469618 -0.00960793 33.92624997 -0.01431956 38.2578125 -0.01745605 C45.53085871 -0.0210911 52.80386426 -0.01630872 60.0769043 -0.0067749 C68.47651078 0.00410876 76.87602015 0.00058286 85.27562428 -0.01042771 C92.4970549 -0.01951375 99.71845636 -0.02077943 106.93989086 -0.01555037 C111.24869058 -0.01243792 115.5574447 -0.01200141 119.86624146 -0.01862335 C123.91775161 -0.02441534 127.96913698 -0.02036609 132.0206337 -0.00883484 C133.50447508 -0.00619815 134.98832702 -0.00693636 136.47216415 -0.01136017 C138.50341152 -0.01685607 140.53468193 -0.00873053 142.56591797 0 C143.70077133 0.00075405 144.83562469 0.0015081 146.00486755 0.002285 C149.71064067 0.28680343 152.75078365 1.12542814 156.28295898 2.25396729 C156.28295898 2.91396729 156.28295898 3.57396729 156.28295898 4.25396729 C157.08733398 4.37771729 157.08733398 4.37771729 157.90795898 4.50396729 C163.85817047 6.38298144 167.30083292 9.90670676 170.28295898 15.25396729 C172.70071869 20.96477691 173.86058819 26.03622904 174.40795898 32.19146729 C174.4536417 37.11935689 174.4536417 37.11935689 176.28295898 41.25396729 C176.57048866 43.31033134 176.79873614 45.37504321 177.00170898 47.44146729 C177.19313477 49.3247876 177.19313477 49.3247876 177.38842773 51.24615479 C177.58686815 53.25419448 177.783784 55.26238043 177.98071289 57.27056885 C178.1716704 59.20288822 178.36785776 61.13468854 178.56420898 63.06646729 C178.67829102 64.2279126 178.79237305 65.38935791 178.90991211 66.58599854 C178.9981165 69.16991683 178.9981165 69.16991683 180.28295898 70.25396729 C180.49617627 71.58065261 180.65293361 72.91656347 180.78295898 74.25396729 C180.86545898 75.05834229 180.94795898 75.86271729 181.03295898 76.69146729 C181.19962565 78.39980062 181.36629232 80.10813395 181.53295898 81.81646729 C181.61545898 82.62084229 181.69795898 83.42521729 181.78295898 84.25396729 C181.85514648 84.99646729 181.92733398 85.73896729 182.00170898 86.50396729 C182.11147378 88.2777973 182.11147378 88.2777973 183.28295898 89.25396729 C183.50966807 90.8114978 183.67730991 92.37774087 183.81811523 93.94537354 C183.90512695 94.88961182 183.99213867 95.8338501 184.08178711 96.80670166 C184.16879883 97.79992432 184.25581055 98.79314697 184.34545898 99.81646729 C184.43633789 100.81355713 184.5272168 101.81064697 184.62084961 102.83795166 C184.84554712 105.30962431 185.06606249 107.78159984 185.28295898 110.25396729 C186.27295898 110.25396729 187.26295898 110.25396729 188.28295898 110.25396729 C188.28295898 110.91396729 188.28295898 111.57396729 188.28295898 112.25396729 C189.10795898 112.33646729 189.93295898 112.41896729 190.78295898 112.50396729 C195.05049819 113.41843997 198.47532793 115.17619907 202.28295898 117.25396729 C202.28295898 117.91396729 202.28295898 118.57396729 202.28295898 119.25396729 C203.19045898 119.35709229 204.09795898 119.46021729 205.03295898 119.56646729 C208.36225872 120.27074223 209.72014957 121.13302156 212.28295898 123.25396729 C213.27295898 123.58396729 214.26295898 123.91396729 215.28295898 124.25396729 C215.61295898 124.91396729 215.94295898 125.57396729 216.28295898 126.25396729 C218.29965726 127.38747262 218.29965726 127.38747262 220.28295898 128.25396729 C220.28295898 128.91396729 220.28295898 129.57396729 220.28295898 130.25396729 C221.93295898 130.58396729 223.58295898 130.91396729 225.28295898 131.25396729 C225.28295898 131.91396729 225.28295898 132.57396729 225.28295898 133.25396729 C230.25359019 134.16694036 234.31232778 134.16694036 239.28295898 133.25396729 C239.28295898 132.59396729 239.28295898 131.93396729 239.28295898 131.25396729 C241.53028 130.41272412 243.78034684 129.58081897 246.03295898 128.75396729 C246.66717773 128.51549072 247.30139648 128.27701416 247.95483398 128.03131104 C251.31582505 126.80594971 253.65167485 126.25396729 257.28295898 126.25396729 C257.28295898 125.59396729 257.28295898 124.93396729 257.28295898 124.25396729 C259.59295898 123.92396729 261.90295898 123.59396729 264.28295898 123.25396729 C264.28295898 122.59396729 264.28295898 121.93396729 264.28295898 121.25396729 C267.58295898 120.59396729 270.88295898 119.93396729 274.28295898 119.25396729 C274.28295898 118.59396729 274.28295898 117.93396729 274.28295898 117.25396729 C276.53028 116.41272412 278.78034684 115.58081897 281.03295898 114.75396729 C281.66717773 114.51549072 282.30139648 114.27701416 282.95483398 114.03131104 C286.31582505 112.80594971 288.65167485 112.25396729 292.28295898 112.25396729 C292.28295898 111.59396729 292.28295898 110.93396729 292.28295898 110.25396729 C294.59295898 109.92396729 296.90295898 109.59396729 299.28295898 109.25396729 C299.28295898 108.59396729 299.28295898 107.93396729 299.28295898 107.25396729 C303.15979986 106.06109317 306.19917822 105.25396729 310.28295898 105.25396729 C310.28295898 104.59396729 310.28295898 103.93396729 310.28295898 103.25396729 C316.88295898 103.25396729 323.48295898 103.25396729 330.28295898 103.25396729 C330.28295898 103.91396729 330.28295898 104.57396729 330.28295898 105.25396729 C331.33483398 105.33646729 332.38670898 105.41896729 333.47045898 105.50396729 C337.57028026 106.3104895 339.36017577 107.33118407 342.28295898 110.25396729 C342.28295898 110.91396729 342.28295898 111.57396729 342.28295898 112.25396729 C342.88108398 112.48084229 343.47920898 112.70771729 344.09545898 112.94146729 C346.87644302 114.61005771 347.84715058 116.38235048 349.28295898 119.25396729 C349.28295898 119.91396729 349.28295898 120.57396729 349.28295898 121.25396729 C349.94295898 121.25396729 350.60295898 121.25396729 351.28295898 121.25396729 C351.61295898 122.90396729 351.94295898 124.55396729 352.28295898 126.25396729 C352.94295898 126.25396729 353.60295898 126.25396729 354.28295898 126.25396729 C354.94295898 128.56396729 355.60295898 130.87396729 356.28295898 133.25396729 C356.94295898 133.25396729 357.60295898 133.25396729 358.28295898 133.25396729 C358.61295898 134.90396729 358.94295898 136.55396729 359.28295898 138.25396729 C359.94295898 138.25396729 360.60295898 138.25396729 361.28295898 138.25396729 C361.94295898 140.56396729 362.60295898 142.87396729 363.28295898 145.25396729 C363.94295898 145.25396729 364.60295898 145.25396729 365.28295898 145.25396729 C365.61295898 146.90396729 365.94295898 148.55396729 366.28295898 150.25396729 C366.94295898 150.25396729 367.60295898 150.25396729 368.28295898 150.25396729 C368.93388488 151.50132296 369.57847568 152.7519856 370.22045898 154.00396729 C370.58010742 154.70006104 370.93975586 155.39615479 371.31030273 156.11334229 C372.23854081 158.15621162 372.81462477 160.06512105 373.28295898 162.25396729 C373.94295898 162.25396729 374.60295898 162.25396729 375.28295898 162.25396729 C376.28295898 164.25396729 377.28295898 166.25396729 378.28295898 168.25396729 C378.87077148 169.33677979 378.87077148 169.33677979 379.47045898 170.44146729 C380.28295898 172.25396729 380.28295898 172.25396729 380.28295898 175.25396729 C381.27295898 175.58396729 382.26295898 175.91396729 383.28295898 176.25396729 C384.45092773 178.03131104 384.45092773 178.03131104 385.47045898 180.19146729 C385.81463867 180.90174072 386.15881836 181.61201416 386.51342773 182.34381104 C387.28295898 184.25396729 387.28295898 184.25396729 387.28295898 186.25396729 C387.94295898 186.25396729 388.60295898 186.25396729 389.28295898 186.25396729 C389.61295898 188.23396729 389.94295898 190.21396729 390.28295898 192.25396729 C390.94295898 192.25396729 391.60295898 192.25396729 392.28295898 192.25396729 C393.74358749 194.90135645 394.28295898 196.14845063 394.28295898 199.25396729 C394.94295898 199.25396729 395.60295898 199.25396729 396.28295898 199.25396729 C397.12410069 200.68691227 397.95561586 202.12551134 398.78295898 203.56646729 C399.24702148 204.3669751 399.71108398 205.16748291 400.18920898 205.99224854 C401.28295898 208.25396729 401.28295898 208.25396729 401.28295898 211.25396729 C401.94295898 211.25396729 402.60295898 211.25396729 403.28295898 211.25396729 C403.8978418 212.392854 403.8978418 212.392854 404.52514648 213.55474854 C405.06397461 214.54861572 405.60280273 215.54248291 406.15795898 216.56646729 C406.9584668 218.0456665 406.9584668 218.0456665 407.77514648 219.55474854 C409.29018025 222.34983186 409.29018025 222.34983186 411.28295898 225.25396729 C411.28295898 226.24396729 411.28295898 227.23396729 411.28295898 228.25396729 C411.94295898 228.25396729 412.60295898 228.25396729 413.28295898 228.25396729 C414.74358749 230.90135645 415.28295898 232.14845063 415.28295898 235.25396729 C415.94295898 235.25396729 416.60295898 235.25396729 417.28295898 235.25396729 C417.61295898 237.23396729 417.94295898 239.21396729 418.28295898 241.25396729 C418.94295898 241.25396729 419.60295898 241.25396729 420.28295898 241.25396729 C422.69579133 251.57313417 422.69579133 259.9348004 420.28295898 270.25396729 C419.62295898 270.25396729 418.96295898 270.25396729 418.28295898 270.25396729 C418.20045898 270.79021729 418.11795898 271.32646729 418.03295898 271.87896729 C416.32461507 277.28872302 412.92547049 281.12027202 408.28295898 284.25396729 C406.94962565 284.58730062 405.61629232 284.92063395 404.28295898 285.25396729 C403.95295898 286.24396729 403.62295898 287.23396729 403.28295898 288.25396729 C402.29295898 288.25396729 401.30295898 288.25396729 400.28295898 288.25396729 C399.95295898 289.24396729 399.62295898 290.23396729 399.28295898 291.25396729 C397.19160172 293.05725881 395.11382833 294.7293193 392.90795898 296.37896729 C392.31756836 296.83400635 391.72717773 297.28904541 391.11889648 297.75787354 C388.52779686 299.72454149 386.38964497 301.21840529 383.28295898 302.25396729 C383.28295898 302.91396729 383.28295898 303.57396729 383.28295898 304.25396729 C381.63962394 305.2918631 379.97052032 306.28964652 378.28295898 307.25396729 C377.62295898 307.91396729 376.96295898 308.57396729 376.28295898 309.25396729 C375.29295898 309.25396729 374.30295898 309.25396729 373.28295898 309.25396729 C372.95295898 310.24396729 372.62295898 311.23396729 372.28295898 312.25396729 C370.30974845 313.62663548 368.30752747 314.95824346 366.28295898 316.25396729 C365.27740356 317.24838082 364.27805711 318.24908932 363.28295898 319.25396729 C361.78008214 320.5050252 360.25797728 321.73323626 358.72045898 322.94146729 C357.54290039 323.87539307 357.54290039 323.87539307 356.34155273 324.82818604 C354.28295898 326.25396729 354.28295898 326.25396729 352.28295898 326.25396729 C351.95295898 327.24396729 351.62295898 328.23396729 351.28295898 329.25396729 C350.29295898 329.58396729 349.30295898 329.91396729 348.28295898 330.25396729 C346.08067489 331.91709786 345.36885333 332.79624682 344.85490417 335.53501892 C344.83140396 336.42800186 344.80790375 337.3209848 344.78369141 338.24102783 C344.75164108 339.25605881 344.71959076 340.27108978 344.68656921 341.31687927 C344.67068253 342.4137355 344.65479584 343.51059174 344.63842773 344.64068604 C344.60921989 346.33715019 344.60921989 346.33715019 344.579422 348.06788635 C344.54667807 350.46436418 344.52289001 352.86097843 344.50732422 355.25762939 C344.47075469 358.91191869 344.36489482 362.56015119 344.25756836 366.21295166 C344.23437387 368.54299083 344.21535953 370.87307611 344.20092773 373.20318604 C344.15872604 374.28992111 344.11652435 375.37665619 344.07304382 376.49632263 C344.11461211 381.29576002 344.2144218 384.11293595 347.58242798 387.70944214 C350.30030736 389.90131461 350.30030736 389.90131461 353.13349915 391.73231506 C354.19748177 392.48553291 354.19748177 392.48553291 355.28295898 393.25396729 C355.28295898 393.91396729 355.28295898 394.57396729 355.28295898 395.25396729 C356.60295898 395.58396729 357.92295898 395.91396729 359.28295898 396.25396729 C359.28295898 396.91396729 359.28295898 397.57396729 359.28295898 398.25396729 C360.60295898 398.58396729 361.92295898 398.91396729 363.28295898 399.25396729 C363.28295898 399.91396729 363.28295898 400.57396729 363.28295898 401.25396729 C364.93295898 401.91396729 366.58295898 402.57396729 368.28295898 403.25396729 C368.28295898 403.91396729 368.28295898 404.57396729 368.28295898 405.25396729 C368.92233398 405.37771729 369.56170898 405.50146729 370.22045898 405.62896729 C370.90108398 405.83521729 371.58170898 406.04146729 372.28295898 406.25396729 C372.61295898 406.91396729 372.94295898 407.57396729 373.28295898 408.25396729 C375.29965726 409.38747262 375.29965726 409.38747262 377.28295898 410.25396729 C377.28295898 410.91396729 377.28295898 411.57396729 377.28295898 412.25396729 C378.27295898 412.58396729 379.26295898 412.91396729 380.28295898 413.25396729 C380.28295898 413.91396729 380.28295898 414.57396729 380.28295898 415.25396729 C380.90170898 415.39834229 381.52045898 415.54271729 382.15795898 415.69146729 C384.28295898 416.25396729 384.28295898 416.25396729 386.28295898 417.25396729 C386.28295898 417.91396729 386.28295898 418.57396729 386.28295898 419.25396729 C387.60295898 419.58396729 388.92295898 419.91396729 390.28295898 420.25396729 C390.28295898 420.91396729 390.28295898 421.57396729 390.28295898 422.25396729 C391.00483398 422.48084229 391.72670898 422.70771729 392.47045898 422.94146729 C395.82316776 424.50606471 397.71418667 426.61932901 400.28295898 429.25396729 C402.44916443 430.54916724 402.44916443 430.54916724 404.28295898 431.25396729 C404.28295898 431.91396729 404.28295898 432.57396729 404.28295898 433.25396729 C405.60295898 433.58396729 406.92295898 433.91396729 408.28295898 434.25396729 C408.28295898 434.91396729 408.28295898 435.57396729 408.28295898 436.25396729 C408.87592773 436.51306885 409.46889648 436.77217041 410.07983398 437.03912354 C412.44154039 438.341412 413.79182344 439.64695207 415.53295898 441.69146729 C416.05374023 442.28830322 416.57452148 442.88513916 417.11108398 443.50006104 C418.28295898 445.25396729 418.28295898 445.25396729 418.28295898 448.25396729 C418.94295898 448.25396729 419.60295898 448.25396729 420.28295898 448.25396729 C423.29704823 460.66017392 423.57194345 471.81945008 417.28295898 483.25396729 C416.62295898 483.25396729 415.96295898 483.25396729 415.28295898 483.25396729 C415.13858398 484.03771729 414.99420898 484.82146729 414.84545898 485.62896729 C414.28295898 488.25396729 414.28295898 488.25396729 413.28295898 490.25396729 C412.62295898 490.25396729 411.96295898 490.25396729 411.28295898 490.25396729 C411.17983398 490.97584229 411.07670898 491.69771729 410.97045898 492.44146729 C410.20620917 495.5679438 409.02066821 497.55086405 407.28295898 500.25396729 C406.54750412 501.5211719 405.81851407 502.79214679 405.09545898 504.06646729 C404.49733398 505.11834229 403.89920898 506.17021729 403.28295898 507.25396729 C402.62295898 507.25396729 401.96295898 507.25396729 401.28295898 507.25396729 C401.17983398 508.16146729 401.07670898 509.06896729 400.97045898 510.00396729 C400.26618404 513.33326702 399.40390471 514.69115787 397.28295898 517.25396729 C396.95295898 518.24396729 396.62295898 519.23396729 396.28295898 520.25396729 C395.62295898 520.25396729 394.96295898 520.25396729 394.28295898 520.25396729 C394.01483398 521.12021729 393.74670898 521.98646729 393.47045898 522.87896729 C392.31183911 526.17188693 390.90086059 529.16524603 389.28295898 532.25396729 C388.62295898 532.25396729 387.96295898 532.25396729 387.28295898 532.25396729 C387.05608398 533.07896729 386.82920898 533.90396729 386.59545898 534.75396729 C385.28852846 538.23911535 383.67377395 540.92387644 381.65795898 544.01959229 C379.24222792 547.94515526 377.28119702 552.10443469 375.28295898 556.25396729 C374.62295898 556.25396729 373.96295898 556.25396729 373.28295898 556.25396729 C373.16823242 556.82115479 373.05350586 557.38834229 372.93530273 557.97271729 C372.21258181 560.50007668 371.15802144 562.47937834 369.84545898 564.75396729 C368.23968948 567.55327891 366.70000302 570.35397019 365.28295898 573.25396729 C364.62295898 573.25396729 363.96295898 573.25396729 363.28295898 573.25396729 C363.13858398 574.03771729 362.99420898 574.82146729 362.84545898 575.62896729 C362.28295898 578.25396729 362.28295898 578.25396729 361.28295898 580.25396729 C360.62295898 580.25396729 359.96295898 580.25396729 359.28295898 580.25396729 C359.12827148 581.33677979 359.12827148 581.33677979 358.97045898 582.44146729 C358.20620917 585.5679438 357.02066821 587.55086405 355.28295898 590.25396729 C354.54750412 591.5211719 353.81851407 592.79214679 353.09545898 594.06646729 C352.49733398 595.11834229 351.89920898 596.17021729 351.28295898 597.25396729 C350.62295898 597.25396729 349.96295898 597.25396729 349.28295898 597.25396729 C349.13858398 597.85209229 348.99420898 598.45021729 348.84545898 599.06646729 C347.12871181 605.74270631 342.74311122 608.34453093 337.28295898 612.25396729 C327.42106318 617.81249037 316.96645509 616.30913903 306.28295898 614.25396729 C306.28295898 613.59396729 306.28295898 612.93396729 306.28295898 612.25396729 C303.97295898 611.92396729 301.66295898 611.59396729 299.28295898 611.25396729 C299.28295898 610.59396729 299.28295898 609.93396729 299.28295898 609.25396729 C298.35483398 609.17146729 297.42670898 609.08896729 296.47045898 609.00396729 C291.15761401 608.27153804 286.25517101 606.18710578 281.28295898 604.25396729 C281.28295898 603.59396729 281.28295898 602.93396729 281.28295898 602.25396729 C277.98295898 601.59396729 274.68295898 600.93396729 271.28295898 600.25396729 C271.28295898 599.59396729 271.28295898 598.93396729 271.28295898 598.25396729 C268.97295898 597.92396729 266.66295898 597.59396729 264.28295898 597.25396729 C264.28295898 596.59396729 264.28295898 595.93396729 264.28295898 595.25396729 C263.35483398 595.17146729 262.42670898 595.08896729 261.47045898 595.00396729 C256.15761401 594.27153804 251.25517101 592.18710578 246.28295898 590.25396729 C246.28295898 589.59396729 246.28295898 588.93396729 246.28295898 588.25396729 C242.98295898 587.59396729 239.68295898 586.93396729 236.28295898 586.25396729 C236.28295898 585.59396729 236.28295898 584.93396729 236.28295898 584.25396729 C233.31295898 584.25396729 230.34295898 584.25396729 227.28295898 584.25396729 C227.28295898 584.91396729 227.28295898 585.57396729 227.28295898 586.25396729 C224.63556982 587.71459579 223.38847564 588.25396729 220.28295898 588.25396729 C219.95295898 589.24396729 219.62295898 590.23396729 219.28295898 591.25396729 C218.29295898 591.25396729 217.30295898 591.25396729 216.28295898 591.25396729 C216.28295898 591.91396729 216.28295898 592.57396729 216.28295898 593.25396729 C214.63842773 594.54302979 214.63842773 594.54302979 212.47045898 595.87896729 C211.40891602 596.54799072 211.40891602 596.54799072 210.32592773 597.23052979 C208.28295898 598.25396729 208.28295898 598.25396729 205.28295898 598.25396729 C205.28295898 598.91396729 205.28295898 599.57396729 205.28295898 600.25396729 C202.64295898 600.91396729 200.00295898 601.57396729 197.28295898 602.25396729 C197.28295898 602.91396729 197.28295898 603.57396729 197.28295898 604.25396729 C195.30295898 604.58396729 193.32295898 604.91396729 191.28295898 605.25396729 C191.28295898 605.91396729 191.28295898 606.57396729 191.28295898 607.25396729 C189.30295898 607.58396729 187.32295898 607.91396729 185.28295898 608.25396729 C185.22760986 608.88488281 185.17226074 609.51579834 185.11523438 610.16583252 C184.86327778 613.00814409 184.60446129 615.84978947 184.34545898 618.69146729 C184.25844727 619.68468994 184.17143555 620.6779126 184.08178711 621.70123291 C183.99477539 622.64547119 183.90776367 623.58970947 183.81811523 624.56256104 C183.70028687 625.87438354 183.70028687 625.87438354 183.58007812 627.21270752 C183.28295898 629.25396729 183.28295898 629.25396729 182.28295898 630.25396729 C182.06919385 631.65383203 181.91273295 633.06258411 181.78295898 634.47271729 C181.70045898 635.32220947 181.61795898 636.17170166 181.53295898 637.04693604 C181.45045898 637.94025635 181.36795898 638.83357666 181.28295898 639.75396729 C181.12034582 641.51476301 180.95388542 643.27520911 180.78295898 645.03521729 C180.71077148 645.81961182 180.63858398 646.60400635 180.56420898 647.41217041 C180.28295898 649.25396729 180.28295898 649.25396729 179.28295898 650.25396729 C178.99542931 652.31033134 178.76718183 654.37504321 178.56420898 656.44146729 C178.4365918 657.69701416 178.30897461 658.95256104 178.17749023 660.24615479 C178.04547388 661.58204238 177.91396978 662.9179807 177.78295898 664.25396729 C177.52753093 666.85870276 177.26637019 669.46262874 177.00170898 672.06646729 C176.88762695 673.2279126 176.77354492 674.38935791 176.65600586 675.58599854 C176.28295898 678.25396729 176.28295898 678.25396729 175.28295898 679.25396729 C174.88257598 682.10925336 174.53113629 684.95133215 174.22045898 687.81646729 C174.12958008 688.62277588 174.03870117 689.42908447 173.94506836 690.25982666 C173.72048449 692.25744106 173.50122662 694.25565289 173.28295898 696.25396729 C172.62295898 696.25396729 171.96295898 696.25396729 171.28295898 696.25396729 C171.13858398 697.36771729 170.99420898 698.48146729 170.84545898 699.62896729 C170.28295898 703.25396729 170.28295898 703.25396729 169.28295898 705.25396729 C168.62295898 705.25396729 167.96295898 705.25396729 167.28295898 705.25396729 C167.22108398 705.83146729 167.15920898 706.40896729 167.09545898 707.00396729 C165.94911724 710.17845212 164.02339056 711.38245304 161.28295898 713.25396729 C160.62295898 713.25396729 159.96295898 713.25396729 159.28295898 713.25396729 C159.28295898 713.91396729 159.28295898 714.57396729 159.28295898 715.25396729 C150.88831624 718.52497651 142.88157443 718.68240371 133.97021484 718.64215088 C132.44641241 718.64622343 130.92261293 718.65156912 129.39881897 718.65808105 C125.2872931 718.67167818 121.17599478 718.66648801 117.06446528 718.6569438 C112.74719968 718.64930893 108.42995259 718.65640326 104.11268616 718.66110229 C96.86594165 718.66654817 89.61928911 718.65939838 82.37255859 718.64508057 C74.01094605 718.62875012 65.64955294 718.63405011 57.28794569 718.65055978 C50.08934247 718.66420067 42.89080507 718.6660818 35.69219309 718.65824378 C31.40123911 718.65358233 27.11038808 718.65290025 22.81944084 718.66285324 C18.78506322 718.67155886 14.75096693 718.66543585 10.71661949 718.64817047 C9.24168107 718.644225 7.76671871 718.64530619 6.29179001 718.65195847 C-3.33154132 718.69133996 -12.8138938 718.40085956 -20.71704102 712.25396729 C-25.71704102 706.31213903 -25.71704102 706.31213903 -25.71704102 703.25396729 C-26.37704102 703.25396729 -27.03704102 703.25396729 -27.71704102 703.25396729 C-28.04704102 700.61396729 -28.37704102 697.97396729 -28.71704102 695.25396729 C-29.37704102 695.25396729 -30.03704102 695.25396729 -30.71704102 695.25396729 C-31.89121981 686.21698403 -33.00698973 677.38735183 -32.71704102 668.25396729 C-33.37704102 668.25396729 -34.03704102 668.25396729 -34.71704102 668.25396729 C-34.83821289 666.99842041 -34.95938477 665.74287354 -35.08422852 664.44927979 C-36.22644815 652.87618538 -36.22644815 652.87618538 -38.27563477 641.43756104 C-39.75708637 634.10896417 -39.85968543 626.70317554 -39.71704102 619.25396729 C-40.37704102 619.25396729 -41.03704102 619.25396729 -41.71704102 619.25396729 C-42.04704102 615.95396729 -42.37704102 612.65396729 -42.71704102 609.25396729 C-44.69704102 608.59396729 -46.67704102 607.93396729 -48.71704102 607.25396729 C-48.71704102 606.59396729 -48.71704102 605.93396729 -48.71704102 605.25396729 C-50.36704102 604.92396729 -52.01704102 604.59396729 -53.71704102 604.25396729 C-53.71704102 603.59396729 -53.71704102 602.93396729 -53.71704102 602.25396729 C-54.55493164 602.17275635 -55.39282227 602.09154541 -56.25610352 602.00787354 C-60.43415715 601.09775576 -63.46510673 599.38352882 -67.09204102 597.19146729 C-67.73270508 596.8144165 -68.37336914 596.43736572 -69.03344727 596.04888916 C-70.59958167 595.12557112 -72.15902136 594.19091335 -73.71704102 593.25396729 C-73.71704102 592.59396729 -73.71704102 591.93396729 -73.71704102 591.25396729 C-75.03704102 590.92396729 -76.35704102 590.59396729 -77.71704102 590.25396729 C-77.71704102 589.59396729 -77.71704102 588.93396729 -77.71704102 588.25396729 C-78.31516602 588.10959229 -78.91329102 587.96521729 -79.52954102 587.81646729 C-81.27854506 587.36672339 -83.00381124 586.82504388 -84.71704102 586.25396729 C-84.71704102 585.59396729 -84.71704102 584.93396729 -84.71704102 584.25396729 C-87.68704102 584.25396729 -90.65704102 584.25396729 -93.71704102 584.25396729 C-93.71704102 584.91396729 -93.71704102 585.57396729 -93.71704102 586.25396729 C-97.01704102 586.91396729 -100.31704102 587.57396729 -103.71704102 588.25396729 C-103.71704102 588.91396729 -103.71704102 589.57396729 -103.71704102 590.25396729 C-105.96436203 591.09521045 -108.21442887 591.9271156 -110.46704102 592.75396729 C-111.10125977 592.99244385 -111.73547852 593.23092041 -112.38891602 593.47662354 C-115.74990709 594.70198486 -118.08575689 595.25396729 -121.71704102 595.25396729 C-121.71704102 595.91396729 -121.71704102 596.57396729 -121.71704102 597.25396729 C-124.02704102 597.58396729 -126.33704102 597.91396729 -128.71704102 598.25396729 C-128.71704102 598.91396729 -128.71704102 599.57396729 -128.71704102 600.25396729 C-132.01704102 600.91396729 -135.31704102 601.57396729 -138.71704102 602.25396729 C-138.71704102 602.91396729 -138.71704102 603.57396729 -138.71704102 604.25396729 C-141.02704102 604.58396729 -143.33704102 604.91396729 -145.71704102 605.25396729 C-145.71704102 605.91396729 -145.71704102 606.57396729 -145.71704102 607.25396729 C-149.59388189 608.4468414 -152.63326025 609.25396729 -156.71704102 609.25396729 C-156.71704102 609.91396729 -156.71704102 610.57396729 -156.71704102 611.25396729 C-159.02704102 611.58396729 -161.33704102 611.91396729 -163.71704102 612.25396729 C-163.71704102 612.91396729 -163.71704102 613.57396729 -163.71704102 614.25396729 C-168.29550912 615.54548008 -172.73751564 615.51475965 -177.46704102 615.56646729 C-178.33586914 615.59547119 -179.20469727 615.6244751 -180.09985352 615.65435791 C-188.32634258 615.73464647 -194.07032629 613.14301785 -200.21704102 607.69146729 C-200.88735352 607.11267822 -201.55766602 606.53388916 -202.24829102 605.93756104 C-203.71704102 604.25396729 -203.71704102 604.25396729 -203.71704102 601.25396729 C-204.70704102 600.92396729 -205.69704102 600.59396729 -206.71704102 600.25396729 C-206.71704102 599.26396729 -206.71704102 598.27396729 -206.71704102 597.25396729 C-207.37704102 597.25396729 -208.03704102 597.25396729 -208.71704102 597.25396729 C-210.17766952 594.60657812 -210.71704102 593.35948394 -210.71704102 590.25396729 C-211.37704102 590.25396729 -212.03704102 590.25396729 -212.71704102 590.25396729 C-213.71704102 588.25396729 -214.71704102 586.25396729 -215.71704102 584.25396729 C-216.10891602 583.53209229 -216.50079102 582.81021729 -216.90454102 582.06646729 C-217.71704102 580.25396729 -217.71704102 580.25396729 -217.71704102 577.25396729 C-218.70704102 576.92396729 -219.69704102 576.59396729 -220.71704102 576.25396729 C-220.71704102 575.26396729 -220.71704102 574.27396729 -220.71704102 573.25396729 C-221.37704102 573.25396729 -222.03704102 573.25396729 -222.71704102 573.25396729 C-223.37704102 570.94396729 -224.03704102 568.63396729 -224.71704102 566.25396729 C-225.37704102 566.25396729 -226.03704102 566.25396729 -226.71704102 566.25396729 C-227.21204102 563.28396729 -227.21204102 563.28396729 -227.71704102 560.25396729 C-228.70704102 559.92396729 -229.69704102 559.59396729 -230.71704102 559.25396729 C-231.21204102 556.28396729 -231.21204102 556.28396729 -231.71704102 553.25396729 C-232.37704102 553.25396729 -233.03704102 553.25396729 -233.71704102 553.25396729 C-234.12696289 552.49470947 -234.53688477 551.73545166 -234.95922852 550.95318604 C-235.49805664 549.95931885 -236.03688477 548.96545166 -236.59204102 547.94146729 C-237.12571289 546.95533447 -237.65938477 545.96920166 -238.20922852 544.95318604 C-239.72426228 542.15810271 -239.72426228 542.15810271 -241.71704102 539.25396729 C-241.71704102 538.26396729 -241.71704102 537.27396729 -241.71704102 536.25396729 C-242.37704102 536.25396729 -243.03704102 536.25396729 -243.71704102 536.25396729 C-244.55818272 534.8210223 -245.38969789 533.38242323 -246.21704102 531.94146729 C-246.91313477 530.74070557 -246.91313477 530.74070557 -247.62329102 529.51568604 C-248.71704102 527.25396729 -248.71704102 527.25396729 -248.71704102 524.25396729 C-249.37704102 524.25396729 -250.03704102 524.25396729 -250.71704102 524.25396729 C-251.33192383 523.11508057 -251.33192383 523.11508057 -251.95922852 521.95318604 C-252.7674707 520.46238525 -252.7674707 520.46238525 -253.59204102 518.94146729 C-254.12571289 517.95533447 -254.65938477 516.96920166 -255.20922852 515.95318604 C-256.72426228 513.15810271 -256.72426228 513.15810271 -258.71704102 510.25396729 C-258.71704102 509.26396729 -258.71704102 508.27396729 -258.71704102 507.25396729 C-259.37704102 507.25396729 -260.03704102 507.25396729 -260.71704102 507.25396729 C-262.17766952 504.60657812 -262.71704102 503.35948394 -262.71704102 500.25396729 C-263.37704102 500.25396729 -264.03704102 500.25396729 -264.71704102 500.25396729 C-265.55773517 498.65364592 -266.38935606 497.04855557 -267.21704102 495.44146729 C-267.91313477 494.10148682 -267.91313477 494.10148682 -268.62329102 492.73443604 C-269.71704102 490.25396729 -269.71704102 490.25396729 -269.71704102 487.25396729 C-270.70704102 486.92396729 -271.69704102 486.59396729 -272.71704102 486.25396729 C-272.71704102 485.26396729 -272.71704102 484.27396729 -272.71704102 483.25396729 C-273.37704102 483.25396729 -274.03704102 483.25396729 -274.71704102 483.25396729 C-279.51733338 473.5640748 -280.99472575 462.88316271 -278.71704102 452.25396729 C-278.05704102 452.25396729 -277.39704102 452.25396729 -276.71704102 452.25396729 C-276.63454102 451.20209229 -276.55204102 450.15021729 -276.46704102 449.06646729 C-275.6605188 444.96664601 -274.63982423 443.1767505 -271.71704102 440.25396729 C-271.05704102 440.25396729 -270.39704102 440.25396729 -269.71704102 440.25396729 C-269.49016602 439.65584229 -269.26329102 439.05771729 -269.02954102 438.44146729 C-267.36584608 435.66864239 -265.51038642 434.82096593 -262.71704102 433.25396729 C-261.94360352 432.44959229 -261.94360352 432.44959229 -261.15454102 431.62896729 C-259.71704102 430.25396729 -259.71704102 430.25396729 -257.59204102 429.75396729 C-256.97329102 429.58896729 -256.35454102 429.42396729 -255.71704102 429.25396729 C-255.38704102 428.26396729 -255.05704102 427.27396729 -254.71704102 426.25396729 C-252.73629074 424.89220147 -250.73624438 423.55803613 -248.71704102 422.25396729 C-248.38704102 421.59396729 -248.05704102 420.93396729 -247.71704102 420.25396729 C-246.72704102 419.92396729 -245.73704102 419.59396729 -244.71704102 419.25396729 C-244.05704102 418.57334229 -243.39704102 417.89271729 -242.71704102 417.19146729 C-240.71704102 415.25396729 -240.71704102 415.25396729 -237.71704102 415.25396729 C-237.38704102 414.26396729 -237.05704102 413.27396729 -236.71704102 412.25396729 C-236.05704102 412.25396729 -235.39704102 412.25396729 -234.71704102 412.25396729 C-234.71704102 411.59396729 -234.71704102 410.93396729 -234.71704102 410.25396729 C-234.11891602 409.98584229 -233.52079102 409.71771729 -232.90454102 409.44146729 C-230.67436489 408.37374325 -230.67436489 408.37374325 -229.15454102 406.62896729 C-227.71704102 405.25396729 -227.71704102 405.25396729 -224.71704102 405.25396729 C-224.49016602 404.65584229 -224.26329102 404.05771729 -224.02954102 403.44146729 C-222.36584608 400.66864239 -220.51038642 399.82096593 -217.71704102 398.25396729 C-216.6959955 397.27546534 -215.69642892 396.27416302 -214.71704102 395.25396729 C-210.14561244 391.25396729 -210.14561244 391.25396729 -206.71704102 391.25396729 C-206.38704102 390.26396729 -206.05704102 389.27396729 -205.71704102 388.25396729 C-205.05704102 388.25396729 -204.39704102 388.25396729 -203.71704102 388.25396729 C-203.71704102 387.59396729 -203.71704102 386.93396729 -203.71704102 386.25396729 C-203.05704102 386.25396729 -202.39704102 386.25396729 -201.71704102 386.25396729 C-201.96260742 384.59941528 -201.96260742 384.59941528 -202.21313477 382.91143799 C-202.84350956 377.84377219 -202.82486993 372.83424179 -202.77954102 367.73443604 C-202.77386108 366.2638549 -202.77386108 366.2638549 -202.76806641 364.76356506 C-202.75592741 361.65615273 -202.73728603 358.54883671 -202.71704102 355.44146729 C-202.69048586 351.33079287 -202.67049603 347.22016368 -202.65454102 343.10943604 C-202.64624268 342.16569626 -202.63794434 341.22195648 -202.62939453 340.24961853 C-202.62609131 339.37473282 -202.62278809 338.49984711 -202.61938477 337.59844971 C-202.61152954 336.44550667 -202.61152954 336.44550667 -202.60351562 335.26927185 C-202.64029913 333.04690805 -202.64029913 333.04690805 -203.71704102 330.25396729 C-205.36464482 329.54148997 -207.03467631 328.87996346 -208.71704102 328.25396729 C-211.02954102 326.75396729 -211.02954102 326.75396729 -212.71704102 325.25396729 C-212.71704102 324.59396729 -212.71704102 323.93396729 -212.71704102 323.25396729 C-213.35641602 323.15084229 -213.99579102 323.04771729 -214.65454102 322.94146729 C-215.67547852 322.60115479 -215.67547852 322.60115479 -216.71704102 322.25396729 C-217.21204102 320.76896729 -217.21204102 320.76896729 -217.71704102 319.25396729 C-219.04466205 318.89856431 -220.37942207 318.56966406 -221.71704102 318.25396729 C-224.07641602 316.69537354 -224.07641602 316.69537354 -226.46704102 314.81646729 C-227.26625977 314.19900635 -228.06547852 313.58154541 -228.88891602 312.94537354 C-229.49219727 312.38720947 -230.09547852 311.82904541 -230.71704102 311.25396729 C-230.71704102 310.59396729 -230.71704102 309.93396729 -230.71704102 309.25396729 C-231.37704102 309.04771729 -232.03704102 308.84146729 -232.71704102 308.62896729 C-236.78884288 306.76272476 -240.405011 304.27835202 -243.71704102 301.25396729 C-243.71704102 300.59396729 -243.71704102 299.93396729 -243.71704102 299.25396729 C-245.36704102 298.59396729 -247.01704102 297.93396729 -248.71704102 297.25396729 C-248.71704102 296.59396729 -248.71704102 295.93396729 -248.71704102 295.25396729 C-250.03704102 294.92396729 -251.35704102 294.59396729 -252.71704102 294.25396729 C-252.71704102 293.59396729 -252.71704102 292.93396729 -252.71704102 292.25396729 C-254.36704102 291.59396729 -256.01704102 290.93396729 -257.71704102 290.25396729 C-257.71704102 289.59396729 -257.71704102 288.93396729 -257.71704102 288.25396729 C-258.35641602 288.13021729 -258.99579102 288.00646729 -259.65454102 287.87896729 C-260.67547852 287.56959229 -260.67547852 287.56959229 -261.71704102 287.25396729 C-262.04704102 286.59396729 -262.37704102 285.93396729 -262.71704102 285.25396729 C-263.92360352 284.57334229 -263.92360352 284.57334229 -265.15454102 283.87896729 C-267.91820917 282.12639724 -268.383028 281.1125666 -269.71704102 278.25396729 C-270.70704102 277.92396729 -271.69704102 277.59396729 -272.71704102 277.25396729 C-274.16267672 274.93218873 -275.46504907 272.6723449 -276.71704102 270.25396729 C-277.10891602 269.57334229 -277.50079102 268.89271729 -277.90454102 268.19146729 C-282.54947944 257.11507567 -278.77765007 245.77463619 -274.71704102 235.25396729 C-274.05704102 235.25396729 -273.39704102 235.25396729 -272.71704102 235.25396729 C-272.61391602 234.69838135 -272.51079102 234.14279541 -272.40454102 233.57037354 C-271.57510927 230.77575408 -270.26505683 228.65861749 -268.71704102 226.19146729 C-267.02907755 223.4931603 -265.7265474 221.28248645 -264.71704102 218.25396729 C-264.05704102 218.25396729 -263.39704102 218.25396729 -262.71704102 218.25396729 C-262.61391602 217.53209229 -262.51079102 216.81021729 -262.40454102 216.06646729 C-261.65358627 212.99437971 -260.42944931 210.89393007 -258.71704102 208.25396729 C-258.38704102 207.59396729 -258.05704102 206.93396729 -257.71704102 206.25396729 C-257.05704102 206.25396729 -256.39704102 206.25396729 -255.71704102 206.25396729 C-255.44891602 205.38771729 -255.18079102 204.52146729 -254.90454102 203.62896729 C-253.74592114 200.33604764 -252.33494263 197.34268854 -250.71704102 194.25396729 C-250.05704102 194.25396729 -249.39704102 194.25396729 -248.71704102 194.25396729 C-248.44891602 193.38771729 -248.18079102 192.52146729 -247.90454102 191.62896729 C-246.74592114 188.33604764 -245.33494263 185.34268854 -243.71704102 182.25396729 C-243.05704102 182.25396729 -242.39704102 182.25396729 -241.71704102 182.25396729 C-241.61391602 181.53209229 -241.51079102 180.81021729 -241.40454102 180.06646729 C-240.6402912 176.93999077 -239.45475024 174.95707052 -237.71704102 172.25396729 C-236.98158615 170.98676267 -236.25259611 169.71578778 -235.52954102 168.44146729 C-234.93141602 167.38959229 -234.33329102 166.33771729 -233.71704102 165.25396729 C-233.05704102 165.25396729 -232.39704102 165.25396729 -231.71704102 165.25396729 C-231.57266602 164.47021729 -231.42829102 163.68646729 -231.27954102 162.87896729 C-230.71704102 160.25396729 -230.71704102 160.25396729 -229.71704102 158.25396729 C-229.05704102 158.25396729 -228.39704102 158.25396729 -227.71704102 158.25396729 C-227.22204102 155.28396729 -227.22204102 155.28396729 -226.71704102 152.25396729 C-226.05704102 152.25396729 -225.39704102 152.25396729 -224.71704102 152.25396729 C-224.05704102 149.94396729 -223.39704102 147.63396729 -222.71704102 145.25396729 C-222.05704102 145.25396729 -221.39704102 145.25396729 -220.71704102 145.25396729 C-220.44891602 144.57334229 -220.18079102 143.89271729 -219.90454102 143.19146729 C-218.55650796 139.85685919 -217.14167803 136.55653492 -215.71704102 133.25396729 C-215.05704102 133.25396729 -214.39704102 133.25396729 -213.71704102 133.25396729 C-213.44891602 132.55271729 -213.18079102 131.85146729 -212.90454102 131.12896729 C-210.91332827 126.30813643 -208.64378866 121.5804638 -205.71704102 117.25396729 C-205.05704102 117.25396729 -204.39704102 117.25396729 -203.71704102 117.25396729 C-203.61391602 116.61459229 -203.51079102 115.97521729 -203.40454102 115.31646729 C-203.17766602 114.63584229 -202.95079102 113.95521729 -202.71704102 113.25396729 C-201.72704102 112.92396729 -200.73704102 112.59396729 -199.71704102 112.25396729 C-199.22204102 110.76896729 -199.22204102 110.76896729 -198.71704102 109.25396729 C-197.72704102 109.25396729 -196.73704102 109.25396729 -195.71704102 109.25396729 C-195.71704102 108.59396729 -195.71704102 107.93396729 -195.71704102 107.25396729 C-186.71939731 102.18996681 -177.69708336 102.86259308 -167.71704102 103.25396729 C-167.71704102 103.91396729 -167.71704102 104.57396729 -167.71704102 105.25396729 C-166.45891602 105.39834229 -165.20079102 105.54271729 -163.90454102 105.69146729 C-161.29036979 105.99145415 -159.24264209 106.41210026 -156.71704102 107.25396729 C-156.71704102 107.91396729 -156.71704102 108.57396729 -156.71704102 109.25396729 C-154.40704102 109.58396729 -152.09704102 109.91396729 -149.71704102 110.25396729 C-149.71704102 110.91396729 -149.71704102 111.57396729 -149.71704102 112.25396729 C-148.10829102 112.47052979 -148.10829102 112.47052979 -146.46704102 112.69146729 C-143.80041152 113.09146171 -141.30304372 113.52988653 -138.71704102 114.25396729 C-138.71704102 114.91396729 -138.71704102 115.57396729 -138.71704102 116.25396729 C-136.40704102 116.58396729 -134.09704102 116.91396729 -131.71704102 117.25396729 C-131.71704102 117.91396729 -131.71704102 118.57396729 -131.71704102 119.25396729 C-128.41704102 119.91396729 -125.11704102 120.57396729 -121.71704102 121.25396729 C-121.71704102 121.91396729 -121.71704102 122.57396729 -121.71704102 123.25396729 C-119.40704102 123.58396729 -117.09704102 123.91396729 -114.71704102 124.25396729 C-114.71704102 124.91396729 -114.71704102 125.57396729 -114.71704102 126.25396729 C-113.78891602 126.33646729 -112.86079102 126.41896729 -111.90454102 126.50396729 C-106.59169604 127.23639653 -101.68925304 129.32082879 -96.71704102 131.25396729 C-96.71704102 131.91396729 -96.71704102 132.57396729 -96.71704102 133.25396729 C-89.17656198 134.3325659 -89.17656198 134.3325659 -81.71704102 133.25396729 C-81.38704102 132.26396729 -81.05704102 131.27396729 -80.71704102 130.25396729 C-79.72704102 130.25396729 -78.73704102 130.25396729 -77.71704102 130.25396729 C-77.71704102 129.59396729 -77.71704102 128.93396729 -77.71704102 128.25396729 C-76.07250977 126.96490479 -76.07250977 126.96490479 -73.90454102 125.62896729 C-73.1968457 125.18295166 -72.48915039 124.73693604 -71.76000977 124.27740479 C-69.71704102 123.25396729 -69.71704102 123.25396729 -66.71704102 123.25396729 C-66.71704102 122.59396729 -66.71704102 121.93396729 -66.71704102 121.25396729 C-64.06965185 119.79333878 -62.82255767 119.25396729 -59.71704102 119.25396729 C-59.71704102 118.59396729 -59.71704102 117.93396729 -59.71704102 117.25396729 C-56.74704102 116.75896729 -56.74704102 116.75896729 -53.71704102 116.25396729 C-53.71704102 115.59396729 -53.71704102 114.93396729 -53.71704102 114.25396729 C-50.8110384 112.99731751 -48.92099517 112.25396729 -45.71704102 112.25396729 C-45.71704102 111.59396729 -45.71704102 110.93396729 -45.71704102 110.25396729 C-44.72704102 109.92396729 -43.73704102 109.59396729 -42.71704102 109.25396729 C-42.38704102 105.95396729 -42.05704102 102.65396729 -41.71704102 99.25396729 C-41.05704102 99.25396729 -40.39704102 99.25396729 -39.71704102 99.25396729 C-39.75829102 97.99584229 -39.79954102 96.73771729 -39.84204102 95.44146729 C-39.86645039 87.00802899 -38.67904768 78.61998955 -37.71704102 70.25396729 C-37.05704102 70.25396729 -36.39704102 70.25396729 -35.71704102 70.25396729 C-35.72864258 69.64810791 -35.74024414 69.04224854 -35.75219727 68.41802979 C-35.81814063 62.29471781 -35.44135535 56.33303398 -34.71704102 50.25396729 C-34.05704102 50.25396729 -33.39704102 50.25396729 -32.71704102 50.25396729 C-32.74024414 49.71771729 -32.76344727 49.18146729 -32.78735352 48.62896729 C-33.05000136 37.22254654 -32.34930167 25.37443566 -26.71704102 15.25396729 C-26.04665257 13.92250134 -25.37897539 12.58965629 -24.71704102 11.25396729 C-24.05704102 11.25396729 -23.39704102 11.25396729 -22.71704102 11.25396729 C-22.34579102 10.35677979 -22.34579102 10.35677979 -21.96704102 9.44146729 C-20.52511605 6.9180986 -19.19154476 5.75366652 -16.71704102 4.25396729 C-15.72704102 4.25396729 -14.73704102 4.25396729 -13.71704102 4.25396729 C-13.71704102 3.59396729 -13.71704102 2.93396729 -13.71704102 2.25396729 C-8.9834308 0.74156659 -5.01427968 0.00333173 0 0 Z M45.28295898 243.25396729 C45.28295898 243.91396729 45.28295898 244.57396729 45.28295898 245.25396729 C44.65389648 245.2913501 44.02483398 245.32873291 43.37670898 245.36724854 C37.45382069 245.82216917 32.75323823 246.95069181 27.28295898 249.25396729 C26.29295898 249.58396729 25.30295898 249.91396729 24.28295898 250.25396729 C24.28295898 250.91396729 24.28295898 251.57396729 24.28295898 252.25396729 C22.30295898 252.58396729 20.32295898 252.91396729 18.28295898 253.25396729 C18.28295898 253.91396729 18.28295898 254.57396729 18.28295898 255.25396729 C17.71706055 255.37513916 17.15116211 255.49631104 16.56811523 255.62115479 C15.83463867 255.78873291 15.10116211 255.95631104 14.34545898 256.12896729 C13.61456055 256.29138916 12.88366211 256.45381104 12.13061523 256.62115479 C10.07595604 257.08358252 10.07595604 257.08358252 9.28295898 259.25396729 C8.29295898 259.58396729 7.30295898 259.91396729 6.28295898 260.25396729 C6.28295898 260.91396729 6.28295898 261.57396729 6.28295898 262.25396729 C5.31358398 262.54271729 4.34420898 262.83146729 3.34545898 263.12896729 C0.17631695 263.8961141 0.17631695 263.8961141 -0.71704102 266.25396729 C-1.70704102 266.58396729 -2.69704102 266.91396729 -3.71704102 267.25396729 C-5.92561762 269.1290489 -5.92561762 269.1290489 -7.71704102 271.25396729 C-7.71704102 271.91396729 -7.71704102 272.57396729 -7.71704102 273.25396729 C-8.70704102 273.58396729 -9.69704102 273.91396729 -10.71704102 274.25396729 C-12.92561762 276.1290489 -12.92561762 276.1290489 -14.71704102 278.25396729 C-14.71704102 278.91396729 -14.71704102 279.57396729 -14.71704102 280.25396729 C-16.20204102 280.74896729 -16.20204102 280.74896729 -17.71704102 281.25396729 C-20.08210944 283.25517903 -20.70637322 284.22196389 -21.71704102 287.25396729 C-22.21204102 287.72834229 -22.70704102 288.20271729 -23.21704102 288.69146729 C-24.95890072 290.50590448 -25.29559115 291.80955805 -25.71704102 294.25396729 C-26.37704102 294.25396729 -27.03704102 294.25396729 -27.71704102 294.25396729 C-28.04704102 295.24396729 -28.37704102 296.23396729 -28.71704102 297.25396729 C-29.70704102 297.74896729 -29.70704102 297.74896729 -30.71704102 298.25396729 C-31.40176766 300.14161632 -31.40176766 300.14161632 -31.84204102 302.31646729 C-32.00961914 303.04994385 -32.17719727 303.78342041 -32.34985352 304.53912354 C-32.47102539 305.10502197 -32.59219727 305.67092041 -32.71704102 306.25396729 C-33.37704102 306.25396729 -34.03704102 306.25396729 -34.71704102 306.25396729 C-35.04704102 308.23396729 -35.37704102 310.21396729 -35.71704102 312.25396729 C-36.37704102 312.25396729 -37.03704102 312.25396729 -37.71704102 312.25396729 C-37.91040039 312.91783447 -38.10375977 313.58170166 -38.30297852 314.26568604 C-40.53288788 321.82750739 -40.53288788 321.82750739 -41.90454102 325.00396729 C-42.9257949 327.83205496 -42.85573927 330.27195485 -42.71704102 333.25396729 C-43.37704102 333.25396729 -44.03704102 333.25396729 -44.71704102 333.25396729 C-47.01286772 350.96463043 -47.01286772 367.54330414 -44.71704102 385.25396729 C-44.05704102 385.25396729 -43.39704102 385.25396729 -42.71704102 385.25396729 C-42.38704102 388.88396729 -42.05704102 392.51396729 -41.71704102 396.25396729 C-41.05704102 396.25396729 -40.39704102 396.25396729 -39.71704102 396.25396729 C-39.05704102 399.55396729 -38.39704102 402.85396729 -37.71704102 406.25396729 C-37.05704102 406.25396729 -36.39704102 406.25396729 -35.71704102 406.25396729 C-35.38704102 408.23396729 -35.05704102 410.21396729 -34.71704102 412.25396729 C-34.05704102 412.25396729 -33.39704102 412.25396729 -32.71704102 412.25396729 C-32.50047852 413.39865479 -32.50047852 413.39865479 -32.27954102 414.56646729 C-31.75378161 417.33569637 -31.75378161 417.33569637 -30.71704102 420.25396729 C-30.05704102 420.25396729 -29.39704102 420.25396729 -28.71704102 420.25396729 C-28.22204102 422.23396729 -28.22204102 422.23396729 -27.71704102 424.25396729 C-27.05704102 424.25396729 -26.39704102 424.25396729 -25.71704102 424.25396729 C-25.05704102 426.23396729 -24.39704102 428.21396729 -23.71704102 430.25396729 C-23.05704102 430.25396729 -22.39704102 430.25396729 -21.71704102 430.25396729 C-21.22204102 432.23396729 -21.22204102 432.23396729 -20.71704102 434.25396729 C-20.05704102 434.25396729 -19.39704102 434.25396729 -18.71704102 434.25396729 C-18.05704102 435.57396729 -17.39704102 436.89396729 -16.71704102 438.25396729 C-16.05704102 438.25396729 -15.39704102 438.25396729 -14.71704102 438.25396729 C-14.38704102 439.24396729 -14.05704102 440.23396729 -13.71704102 441.25396729 C-13.05704102 441.25396729 -12.39704102 441.25396729 -11.71704102 441.25396729 C-10.72704102 443.23396729 -10.72704102 443.23396729 -9.71704102 445.25396729 C-9.05704102 445.25396729 -8.39704102 445.25396729 -7.71704102 445.25396729 C-7.38704102 446.24396729 -7.05704102 447.23396729 -6.71704102 448.25396729 C-6.05704102 448.25396729 -5.39704102 448.25396729 -4.71704102 448.25396729 C-4.38704102 449.24396729 -4.05704102 450.23396729 -3.71704102 451.25396729 C-2.72704102 451.58396729 -1.73704102 451.91396729 -0.71704102 452.25396729 C0.28295898 453.25396729 1.28295898 454.25396729 2.28295898 455.25396729 C2.94295898 455.25396729 3.60295898 455.25396729 4.28295898 455.25396729 C4.28295898 455.91396729 4.28295898 456.57396729 4.28295898 457.25396729 C5.08733398 457.54271729 5.89170898 457.83146729 6.72045898 458.12896729 C9.28295898 459.25396729 9.28295898 459.25396729 10.28295898 461.25396729 C12.03927721 462.19791682 13.83886246 463.06252239 15.65795898 463.87896729 C17.12362305 464.54799072 17.12362305 464.54799072 18.61889648 465.23052979 C21.27405499 466.43327337 21.27405499 466.43327337 24.28295898 466.25396729 C24.28295898 466.91396729 24.28295898 467.57396729 24.28295898 468.25396729 C26.59295898 468.58396729 28.90295898 468.91396729 31.28295898 469.25396729 C31.28295898 469.91396729 31.28295898 470.57396729 31.28295898 471.25396729 C32.67321289 471.56140869 32.67321289 471.56140869 34.09155273 471.87506104 C35.88786133 472.27918213 35.88786133 472.27918213 37.72045898 472.69146729 C38.91541992 472.95830322 40.11038086 473.22513916 41.34155273 473.50006104 C44.28295898 474.25396729 44.28295898 474.25396729 45.28295898 475.25396729 C50.96517408 476.34205103 56.51110749 476.35848773 62.28295898 476.25396729 C62.28295898 476.91396729 62.28295898 477.57396729 62.28295898 478.25396729 C65.26218492 478.28080716 68.24117193 478.30072766 71.22045898 478.31646729 C72.0705957 478.32484619 72.92073242 478.3332251 73.79663086 478.34185791 C74.60551758 478.34508057 75.4144043 478.34830322 76.24780273 478.35162354 C76.99666748 478.35686035 77.74553223 478.36209717 78.51708984 478.36749268 C80.30963637 478.44738481 80.30963637 478.44738481 81.28295898 477.25396729 C84.55716254 476.8045668 87.83043502 476.43576006 91.11694336 476.09185791 C95.41821006 475.6033484 99.19132258 474.74552836 103.28295898 473.25396729 C104.73634805 472.86023981 106.19422101 472.48228335 107.65795898 472.12896729 C109.45233398 471.69584229 109.45233398 471.69584229 111.28295898 471.25396729 C111.28295898 470.59396729 111.28295898 469.93396729 111.28295898 469.25396729 C112.25233398 469.17146729 113.22170898 469.08896729 114.22045898 469.00396729 C118.95415 468.35405479 123.02280306 466.33091405 127.28295898 464.25396729 C127.28295898 463.59396729 127.28295898 462.93396729 127.28295898 462.25396729 C128.93295898 461.92396729 130.58295898 461.59396729 132.28295898 461.25396729 C132.28295898 460.59396729 132.28295898 459.93396729 132.28295898 459.25396729 C134.26295898 458.59396729 136.24295898 457.93396729 138.28295898 457.25396729 C138.28295898 456.59396729 138.28295898 455.93396729 138.28295898 455.25396729 C139.60295898 454.92396729 140.92295898 454.59396729 142.28295898 454.25396729 C142.28295898 453.59396729 142.28295898 452.93396729 142.28295898 452.25396729 C143.23170898 452.02709229 144.18045898 451.80021729 145.15795898 451.56646729 C148.47941546 450.59855388 148.47941546 450.59855388 149.34545898 447.75396729 C149.65483398 446.92896729 149.96420898 446.10396729 150.28295898 445.25396729 C151.94650688 444.57955598 153.6136284 443.91393519 155.28295898 443.25396729 C157.0176961 441.31271385 158.68752409 439.3112386 160.28295898 437.25396729 C160.86045898 436.71771729 161.43795898 436.18146729 162.03295898 435.62896729 C163.45676754 434.28622538 163.45676754 434.28622538 163.78295898 432.12896729 C163.94795898 431.51021729 164.11295898 430.89146729 164.28295898 430.25396729 C165.27295898 429.92396729 166.26295898 429.59396729 167.28295898 429.25396729 C167.28295898 428.26396729 167.28295898 427.27396729 167.28295898 426.25396729 C167.94295898 426.25396729 168.60295898 426.25396729 169.28295898 426.25396729 C170.27295898 423.28396729 170.27295898 423.28396729 171.28295898 420.25396729 C171.94295898 420.25396729 172.60295898 420.25396729 173.28295898 420.25396729 C181.2467922 405.15251985 187.91809184 389.34376967 189.07202148 372.11724854 C189.28295898 370.25396729 189.28295898 370.25396729 190.28295898 369.25396729 C190.3815603 367.85047993 190.41374835 366.44216251 190.41577148 365.03521729 C190.41770508 363.760979 190.41770508 363.760979 190.41967773 362.46099854 C190.41581055 361.56767822 190.41194336 360.67435791 190.40795898 359.75396729 C190.41182617 358.86064697 190.41569336 357.96732666 190.41967773 357.04693604 C190.41838867 356.19744385 190.41709961 355.34795166 190.41577148 354.47271729 C190.41407959 353.29612549 190.41407959 353.29612549 190.41235352 352.09576416 C190.4840334 350.23643741 190.4840334 350.23643741 189.28295898 349.25396729 C188.88257598 346.39868121 188.53113629 343.55660242 188.22045898 340.69146729 C188.08414063 339.48200439 188.08414063 339.48200439 187.94506836 338.24810791 C187.72048449 336.25049352 187.50122662 334.25228168 187.28295898 332.25396729 C186.62295898 332.25396729 185.96295898 332.25396729 185.28295898 332.25396729 C185.22237305 331.56689697 185.16178711 330.87982666 185.09936523 330.17193604 C185.01557617 329.27088135 184.93178711 328.36982666 184.84545898 327.44146729 C184.76424805 326.54814697 184.68303711 325.65482666 184.59936523 324.73443604 C184.34806131 322.1265317 184.34806131 322.1265317 183.28295898 319.25396729 C182.62295898 319.25396729 181.96295898 319.25396729 181.28295898 319.25396729 C180.95295898 316.94396729 180.62295898 314.63396729 180.28295898 312.25396729 C179.62295898 312.25396729 178.96295898 312.25396729 178.28295898 312.25396729 C178.20045898 311.42896729 178.11795898 310.60396729 178.03295898 309.75396729 C177.12997167 305.5400265 175.58862754 301.89953379 173.28295898 298.25396729 C172.62295898 297.92396729 171.96295898 297.59396729 171.28295898 297.25396729 C170.56136474 295.61033595 169.88944478 293.94346342 169.28295898 292.25396729 C168.62295898 292.25396729 167.96295898 292.25396729 167.28295898 292.25396729 C167.15920898 291.61459229 167.03545898 290.97521729 166.90795898 290.31646729 C166.70170898 289.63584229 166.49545898 288.95521729 166.28295898 288.25396729 C165.62295898 287.92396729 164.96295898 287.59396729 164.28295898 287.25396729 C163.15795898 285.19146729 163.15795898 285.19146729 162.28295898 283.25396729 C161.62295898 283.25396729 160.96295898 283.25396729 160.28295898 283.25396729 C159.95295898 282.26396729 159.62295898 281.27396729 159.28295898 280.25396729 C158.62295898 280.25396729 157.96295898 280.25396729 157.28295898 280.25396729 C156.29295898 278.27396729 156.29295898 278.27396729 155.28295898 276.25396729 C154.62295898 276.25396729 153.96295898 276.25396729 153.28295898 276.25396729 C152.95295898 275.26396729 152.62295898 274.27396729 152.28295898 273.25396729 C151.62295898 273.25396729 150.96295898 273.25396729 150.28295898 273.25396729 C149.29295898 271.27396729 149.29295898 271.27396729 148.28295898 269.25396729 C147.62295898 269.25396729 146.96295898 269.25396729 146.28295898 269.25396729 C146.28295898 268.59396729 146.28295898 267.93396729 146.28295898 267.25396729 C145.29295898 266.92396729 144.30295898 266.59396729 143.28295898 266.25396729 C142.29295898 264.76896729 142.29295898 264.76896729 141.28295898 263.25396729 C138.72013157 262.52431362 138.72013157 262.52431362 136.28295898 262.25396729 C136.28295898 261.59396729 136.28295898 260.93396729 136.28295898 260.25396729 C134.96295898 259.92396729 133.64295898 259.59396729 132.28295898 259.25396729 C132.28295898 258.59396729 132.28295898 257.93396729 132.28295898 257.25396729 C130.51540372 256.41370332 128.74378636 255.58198007 126.97045898 254.75396729 C125.98432617 254.28990479 124.99819336 253.82584229 123.98217773 253.34771729 C121.30495772 252.06619257 121.30495772 252.06619257 118.28295898 252.25396729 C118.28295898 251.59396729 118.28295898 250.93396729 118.28295898 250.25396729 C117.6190918 250.06060791 116.95522461 249.86724854 116.27124023 249.66802979 C108.70941888 247.43812042 108.70941888 247.43812042 105.53295898 246.06646729 C102.70487131 245.0452134 100.26497142 245.11526903 97.28295898 245.25396729 C97.28295898 244.59396729 97.28295898 243.93396729 97.28295898 243.25396729 C79.62090321 240.74997963 62.94501476 240.74997963 45.28295898 243.25396729 Z " fill="#FFFFFF" transform="translate(468.717041015625,180.74603271484375)"/>
</svg>
